PathFileType	4	(X/Y/Z)	Patient4_TMGait_0pt6_02_right_19.trc.trc
DataRate	CameraRate	NumFrames	NumMarkers	Units	OrigDataRate	OrigDataStartFrame	OrigNumFrames
81.871345029240	81.871345029240	5	33	mm	81.871345029240	106	       141
Frame#	Time	Sacral			L.Shoulder			Chest			R.Shoulder			Neck			R.ASIS			L.ASIS			R.Thigh.Superior			R.Thigh.Lateral			R.Thigh.Inferior			R.Patella			L.Thigh.Superior			L.Thigh.Lateral			L.Thigh.Inferior			L.Patella			L.Shank.Superior			L.Shank.Lateral			L.Shank.Inferior			R.Shank.Superior			R.Shank.Lateral			R.Shank.Inferior			R.Heel			R.Midfoot.Superior			R.Midfoot.Lateral			R.Toe			L.Heel			L.Midfoot.Lateral			L.Midfoot.Superior			L.Toe			L.Elbow			L.Wrist			R.Elbow			R.Wrist			
		X1	Y1	Z1	X2	Y2	Z2	X3	Y3	Z3	X4	Y4	Z4	X5	Y5	Z5	X6	Y6	Z6	X7	Y7	Z7	X8	Y8	Z8	X9	Y9	Z9	X10	Y10	Z10	X11	Y11	Z11	X12	Y12	Z12	X13	Y13	Z13	X14	Y14	Z14	X15	Y15	Z15	X16	Y16	Z16	X17	Y17	Z17	X18	Y18	Z18	X19	Y19	Z19	X20	Y20	Z20	X21	Y21	Z21	X22	Y22	Z22	X23	Y23	Z23	X24	Y24	Z24	X25	Y25	Z25	X26	Y26	Z26	X27	Y27	Z27	X28	Y28	Z28	X29	Y29	Z29	X30	Y30	Z30	X31	Y31	Z31	X32	Y32	Z32	X33	Y33	Z33	

106	24.012500000000	743.068686151461	1015.262615408514	439.126388819935	941.382678920942	1428.697017838270	244.650785573565	1037.357061196808	1361.408526493430	409.994530598352	953.709862322531	1448.732435900334	577.167560345331	941.664420981230	1496.224013429247	392.943327624763	967.182754438590	948.789910287413	558.305882392970	957.938819501066	962.728796931474	284.331077349475	1062.698650585364	800.353263217022	527.574376900269	1041.877427647610	676.153937060228	605.056098570130	1135.154755036539	649.593662878272	524.634212299305	1172.050828571539	541.738984385685	546.213362349893	986.757830274504	745.850996179672	315.030206130932	884.935206434686	639.048165700846	258.741248960560	959.402043040735	554.542278311535	323.058588780378	952.118131494911	488.443969640482	334.881086030938	927.976880600913	418.827835535600	327.376190264046	837.934148045156	302.207179451078	280.288788138488	892.594766652117	194.503396609205	355.974778508663	1112.097806940754	454.643496065845	550.585156140850	1003.383200488696	387.300220476551	609.315978261865	1013.234734491032	279.596043158029	556.598017840359	831.609278458371	176.609466688753	527.028076033409	1008.520018562440	152.264559623099	563.550909675503	902.573515292426	126.943274781149	597.056231900965	1095.904548216488	55.422482176012	584.220836940044	769.505677858413	37.516336838450	408.169990133854	840.137418323071	34.686793763593	323.869188331182	923.003334132002	96.886120571918	347.272256584365	1051.110636371986	48.449909081040	314.672659752821	939.513007692903	1085.611424178182	102.800770768427	1121.944493535362	897.955509729056	119.311060100066	861.282971022734	1119.268238704884	708.697390407094	932.033467306705	866.875804207202	715.130787256382	
107	24.024714285714	743.513301777487	1014.676488587096	437.884908304655	942.410317975929	1428.607607039260	244.642309069436	1037.562330202615	1361.235782396047	410.419480488603	952.927440674537	1448.154153342691	577.273817680455	941.723530742943	1495.900497235560	393.087713188758	967.361930866896	948.379312167561	558.014691622000	958.879570629169	962.388369027055	284.085401661048	1063.447449329551	801.094219647777	527.557221797201	1043.498607078322	676.708117765746	605.277418368903	1136.756656715973	650.808834510241	524.807919804075	1175.313964444477	545.017899678420	546.780409042488	985.616148201829	744.699395491796	315.162185446051	882.213027397316	638.964180033312	258.091198012070	955.097531056640	553.623358770501	322.655180826460	947.033228642042	487.766440202751	334.380215721753	922.501722918110	418.386337434672	326.977090135522	831.925961436256	302.193139121939	279.864078878414	885.892423966634	194.272364668003	355.790286836105	1119.730603830219	456.189697552804	551.128795742579	1015.372389807411	382.574677453382	610.028036392745	1031.690301526376	275.626806161159	557.302180279091	856.743111257777	161.985919226572	527.641656971415	1034.611390690242	148.048719202902	564.380707240554	930.413341693527	116.662800264806	597.992117600995	1127.522319836603	56.555340199269	585.356721313115	762.187102872192	37.576662494118	408.114742688099	832.803668289471	34.667722510524	323.856547525977	915.777951252010	96.775852779639	347.250087689866	1043.850130299021	48.089060156204	314.694082686914	944.469503737824	1087.108656111560	100.299829957588	1136.457761006088	909.633888250372	118.964605116987	856.739478198259	1119.403637014117	707.329360938798	913.423082246482	863.319212131781	716.892429191743	
108	24.036928571429	744.182809580395	1013.900132965885	436.790142577583	943.421841450013	1428.302065556002	244.729800520100	1037.842976697661	1360.906355965443	410.905488449765	952.306541613655	1447.482185399201	577.443206106702	941.870593305407	1495.406916317451	393.288424728455	967.762573438653	947.694611198271	557.807388379960	959.858908017432	961.927616387484	283.960241933495	1063.957442372161	801.072837467244	527.580550702079	1044.539753609553	676.529719259456	605.533690686167	1137.673502355309	651.050319984914	525.003365012916	1177.692202307723	547.502465148526	547.371977982850	984.660448418671	743.514699802739	315.158339203565	879.495724650722	638.895499583834	257.448628029889	950.823537825085	552.721045886687	322.150066833853	942.002874169585	487.093568764269	333.761143386019	917.020589336919	417.961933576104	326.513841117891	825.871170853098	302.223474438429	279.437265814421	879.197753013141	194.063292551179	355.545118325325	1126.665164293926	457.231185062734	551.749717045677	1027.173605458722	377.458649731750	610.829943323532	1050.159824266367	271.684707966651	558.153074784529	882.890344772324	147.424109511673	528.269142164037	1061.018720724161	144.315002945653	565.457788006342	958.995061649128	106.800060004934	599.066254578628	1159.261101166459	58.706478762621	586.939316035169	754.876467603696	37.661304671714	408.047324474841	825.475725371445	34.651835905781	323.840129664337	908.572656818833	96.660970965494	347.202675392027	1036.599171919894	47.678914580282	314.706440564953	949.362750849723	1088.470308361086	97.963337595992	1150.276378138703	921.736061837524	118.906281648172	852.134040566192	1119.727655102872	706.249578243060	895.637694581803	861.034888370495	718.642391591397	
109	24.049142857143	745.102579970711	1012.925386192617	435.866668902533	944.400417885700	1427.779697278300	244.911807449520	1038.198761538781	1360.427184226880	411.441301469183	951.863814985274	1446.735327191287	577.668621937914	942.109380237718	1494.743400385279	393.538713066778	968.413698307588	946.738527288208	557.686937090796	960.879763535201	961.359558972392	283.945463493091	1064.245844840266	800.287669339867	527.647307145089	1045.008822051566	675.612646302247	605.823899921872	1137.949874238452	650.326938043343	525.233526052540	1179.220751318221	549.167311868950	547.960437201072	983.858623445016	742.299028147656	314.991643703856	876.766354140633	638.852552873229	256.820157434700	946.583206048363	551.840755905654	321.545707805271	937.029023596729	486.421801671734	333.033915671506	911.532709938081	417.559031303138	325.991567224789	819.758671222275	302.310198230296	279.017789467157	872.504813404518	193.883241959709	355.237480888105	1132.883204631150	457.781734949010	552.423008338096	1038.710519457868	372.071811472897	611.683898397843	1068.468594869977	267.907382016751	559.110252090772	909.808932746200	133.248821505751	528.867135739742	1087.457407564618	141.226312967141	566.731856283552	988.015973056969	97.594519406189	600.207836383145	1190.730197986262	61.968603429805	588.887609149433	747.566114537198	37.771282533153	407.969107598821	818.149897489891	34.639811500208	323.819067911472	901.379724542870	96.545789182928	347.126978862909	1029.351168513807	47.233810547974	314.708303435891	954.235864193276	1089.679694214640	95.812106298387	1163.351384816835	934.146978982112	119.123617369662	847.417872515953	1120.305734936610	705.498130220583	878.805168674988	859.916407296041	720.409082010053	
110	24.061357142857	746.290659995516	1011.743958281229	435.140017472242	945.333779469777	1427.040578141088	245.185113308619	1038.628493112826	1359.804161349874	412.016324659745	951.607683396655	1445.928396231216	577.943382866545	942.436393296824	1493.910339810210	393.831271178725	969.341829191734	945.515214051745	557.658590930507	961.967001854902	960.706750202840	284.025232231118	1064.345669055158	798.757242186051	527.775428751218	1044.935607164213	673.970201139141	606.150594280664	1137.658984259881	648.676527227040	525.518194383946	1179.956726194868	550.006112798150	548.519458941896	983.164731967698	741.055320587781	314.659255637739	874.025410389982	638.837833442680	256.214065883233	942.393574973831	550.983406695563	320.856223663646	932.126341837846	485.743920824872	332.217239803182	906.052766357109	417.175696100076	325.420416049586	813.592242392631	302.459150271510	278.615596859318	865.813208561359	193.733870567375	354.871528005179	1138.379687002348	457.857156118403	553.121691215401	1049.887147593372	366.525479574833	612.546719247692	1086.412478566418	264.397550257707	560.126595640748	937.161318735979	119.746617862697	529.394759871071	1113.595701898961	138.880626907740	568.146175238890	1017.096239946318	89.225092283751	601.345152878316	1221.503877549940	66.326868302383	591.100070182671	740.250357946303	37.905129557899	407.882580860091	810.822934522781	34.631861929392	323.793199483226	894.191949350044	96.434000037588	347.022906245704	1022.100291566579	46.769802516122	314.699601998257	959.113368326754	1090.721753531903	93.865260440278	1175.642637357879	946.740670523116	119.603162807152	842.581280512539	1121.184280187658	705.109090787137	863.038843160440	859.827584712852	722.202931843290	
